<svg width="126" height="237" viewBox="0 0 126 237" fill="none" xmlns="http://www.w3.org/2000/svg">
<path d="M110.5 106C121.028 77.5977 118.036 60.4643 126 30C111.134 39.1895 103.1 43.8563 89.5 51C86.2623 49.4793 84.1737 47.8099 79.5 42L57 0C46.3552 15.467 40.7249 24.5983 31.5 42C25.6255 60.5081 23.8584 67.7282 21 80L13.5 148.5C10.2314 181.488 6.93183 197.704 0 225L46 236.5C50.5717 220.246 54.0104 211.076 63.5 194.5C74.5649 173.153 81.928 160.92 95.5 139C101.728 128.002 105.58 119.274 110.5 106Z" fill="#D9D9D9"/>
</svg>
