<svg width="87" height="177" viewBox="0 0 87 177" fill="none" xmlns="http://www.w3.org/2000/svg">
<path d="M2.72494 147.106C-0.459458 134.947 -1.33112 126.184 2.72494 98.6062C4.64989 82.5154 3.52481 71.314 11.2249 48.1063L41.7249 15.1063C49.5857 8.87611 57.4232 6.38357 73.2249 0.106262C78.0769 -0.396929 80.731 0.591775 85.2249 9.60624L85.2551 9.95583C86.6667 26.335 87.4674 35.6257 85.2249 52.1062C82.2481 70.6754 79.4992 80.8274 73.2249 98.6062C64.1393 128.292 58.0217 141.697 45.2249 159.606C31.8293 166.731 24.9183 170.529 14.7249 176.606C8.27861 165.972 5.56464 159.557 2.72494 147.106Z" fill="#D9D9D9"/>
</svg>
