<svg width="174" height="204" viewBox="0 0 174 204" fill="none" xmlns="http://www.w3.org/2000/svg">
<path d="M144.444 180.5C136.733 174.667 120.304 156.7 104.211 151.5V145.5L99.6842 128L87.6111 105.5L71.5204 86L57.4386 67.5C57.4386 67.5 38.4854 57.5 33.2982 57.5C28.1111 57.5 21.2807 56 15.6959 51C10.1111 46 3.61108 40.5 1.11108 36.5C-1.38892 32.5 1.11108 18 1.11108 18V0L6.64325 10L24.2456 23L45.6111 33C45.6111 33 65.1111 43 71.5204 46C77.9298 49 91.6374 51 91.6374 51C91.6374 51 115.111 55 120.304 57.5C125.497 60 133.731 64 140.421 67.5C147.111 71 158.977 92 161.544 96C164.111 100 170.596 128 170.596 128V151.5V172.5C170.596 178.5 173.111 180.5 173.111 180.5L166.573 203.5L161.544 198L144.444 180.5Z" fill="#D9D9D9"/>
</svg>
