<svg width="114" height="352" viewBox="0 0 114 352" fill="none" xmlns="http://www.w3.org/2000/svg">
<path d="M0 93.5C2.76304 61.2505 10.4132 26.8143 18.5 0L35.5 20L43.5 45H86.5L101.5 24C109.333 62.5139 111.353 82.582 113.5 121C111.581 138.256 111.722 149.832 105 163C100.704 178.23 93.5 204 93.5 204C91.1333 248.598 80.907 277.221 84 301.5C88 325 89.5 333.5 89.5 333.5L85.5 352H33.5C30.5364 341.827 26.6209 331.379 29.5 302C25 257 26.3487 242.014 17.5 201.5C7.22103 161.467 3.4171 136.155 0 93.5Z" fill="#D9D9D9"/>
</svg>
