<svg width="155" height="478" viewBox="0 0 155 478" fill="none" xmlns="http://www.w3.org/2000/svg">
<path d="M87.4325 28.5C94.7187 17.3078 100.61 11.0756 114.258 0C128.359 54.2934 136.362 84.7425 144.562 138.5C148.677 166.052 150.673 181.492 153.007 209C155.293 245.615 153.603 263.702 150.026 295.5C144.135 324.057 140.009 339.444 130.155 365C126.573 389.547 127.336 402.759 130.155 429.5C125.32 434.036 122.73 438.191 118.729 443.5C113.991 454.878 110.244 463.924 107 476.5C81.203 477.5 80.3708 478 55 475.5L44.5 453.5L34.2775 414L24.342 350.5C11.0959 300.935 5.27003 272.546 3.05176e-05 220C2.67862 194.964 4.44748 180.931 14.4065 156C37.4451 108.241 52.5425 80.0904 87.4325 28.5Z" fill="#D9D9D9"/>
</svg>
