<svg width="77" height="242" viewBox="0 0 77 242" fill="none" xmlns="http://www.w3.org/2000/svg">
<path d="M39.2268 241.5H76.7267C71.5666 216.498 66.5871 202.227 68.2268 174.5C62.988 154.59 62.9556 144.629 63.2268 127C59.2268 107.5 59.2268 97.5 59.2268 73.5C49.2739 52.7363 52.8036 39.9835 59.2268 27C32.7854 24.267 20.7994 17.6675 2.72675 0C2.56399 8.44417 3.0782 13.1608 2.72675 21.5C-0.708875 34.6678 -1.10361 42.448 2.72675 57.5C7.58927 96.7958 10.7949 113.938 18.2268 127C14.8744 152.206 12.5596 161.958 14.7268 182C10.7014 193.911 11.2818 200.589 14.7268 212.5C30.3037 231.287 36.3576 238.488 39.2268 241.5Z" fill="#D9D9D9"/>
</svg>
