<svg width="114" height="352" viewBox="0 0 114 352" fill="none" xmlns="http://www.w3.org/2000/svg">
<path d="M113.5 93.5C110.737 61.2505 104.587 26.8143 96.5 0L82 18.5L73.5 47H22L12 24C4.1666 62.5139 2.1469 82.582 0 121C1.91883 138.256 8.5 150.5 11 160C13.5 169.5 20.5 200 20.5 200C22.8667 244.598 32.593 277.221 29.5 301.5C25.5 325 24 333.5 24 333.5L28 352L84.5 351C87.4636 340.827 82.8791 330.379 80 301C86.3734 258.788 91 237 95 199C105.279 158.967 110.083 136.155 113.5 93.5Z" fill="#D9D9D9"/>
</svg>
