<svg width="81" height="242" viewBox="0 0 81 242" fill="none" xmlns="http://www.w3.org/2000/svg">
<path d="M37.4999 241.5H7.62939e-06C5.1601 216.498 10.1396 202.227 8.49989 174.5C13.7387 154.59 13.7711 144.629 13.4999 127C17.4999 107.5 17.4999 97.5 17.4999 73.5001V73.5C27.4528 52.7363 23.9231 39.9835 17.4999 27C43.9413 24.267 55.9272 17.6675 73.9999 0C74.1627 8.44417 77.6486 18.6608 78 27C81.4356 40.1678 81.8303 44.448 78 59.5C73.1375 98.7958 65.4999 113.5 61.9999 127C65.3523 152.206 68.1672 162.958 66 183C70.0253 194.911 65.4449 203.589 61.9999 215.5C46.423 234.287 40.3691 238.488 37.4999 241.5Z" fill="#D9D9D9"/>
</svg>
