<svg width="161" height="232" viewBox="0 0 161 232" fill="none" xmlns="http://www.w3.org/2000/svg">
<path d="M10 14.147C27.7624 9.18949 29 4.63123 55.5 1.147C72.485 -1.08619 105.468 0.520246 105 1.14699C104.532 1.77374 124.5 4.647 150.5 14.147C155.491 17.5678 156.095 14.8971 158 21.6471C159.905 28.3971 160.787 37.4031 160 34.6471C159.805 50.2722 161.241 57.6447 158 65.6471C157.836 87.9253 154.743 98.9818 150.5 116.147C151.328 135.82 150.17 146.955 146 167.147C146.958 193.436 144.555 208.416 138 231.647H23C16.6941 207.122 15.1193 193.65 15 167.147C9.48975 146.616 9.84574 119.169 9.97405 116.162C8.27429 116.942 1.67188 86.6056 5 65.6471C0.619396 54.1195 0.339199 51.0153 0 39.1471C0 39.1471 0.5 23.5 3 20C5.5 16.5 10 14.147 10 14.147Z" fill="#D9D9D9"/>
</svg>
