<svg width="172" height="80" viewBox="0 0 172 80" fill="none" xmlns="http://www.w3.org/2000/svg">
<path d="M13.579 65.6125C11.0643 61.6436 7.04094 57.1786 2.0117 48.2484L0 45.2717C0 45.2717 0.827933 40.0398 2.0117 36.8377C3.19547 33.6356 8.54971 24.4347 8.54971 24.4347C8.54971 24.4347 20.476 6.57449 25.6491 2.10937C30.8222 -2.35575 49.9719 1.57214 54.8187 2.1094C54.8187 2.1094 63.8713 2.1094 74.4327 6.57446C84.9941 11.0395 99.076 3.99375 102.596 3.99375C104.556 3.99375 114.667 2.1094 122.211 1.56115C129.754 1.01291 131.4 0.118048 135.789 0.124922C145.689 0.140424 147.357 1.56115 147.357 1.56115L154.901 12.6054L165.965 27.4115L172 41.3027L170.491 48.2484L158.924 64.1242L151.38 72.5582L141.825 78.0155C141.825 78.0155 138.807 80 132.772 80H126.234L99.076 72.5582H74.4327L61.3567 76.031L44.2573 80C44.2573 80 33.8565 79.5551 30.6784 78.0155C27.5002 76.4759 20.6199 72.5582 20.6199 72.5582C20.6199 72.5582 16.0936 69.5815 13.579 65.6125Z" fill="#D9D9D9"/>
</svg>
