<svg width="171" height="205" viewBox="0 0 171 205" fill="none" xmlns="http://www.w3.org/2000/svg">
<path d="M32.5 173.5C40.1667 167.667 52.5 157.7 68.5 152.5V146.5L73 129L86.5 106.5C86.5 106.5 98 89 101 85C104 81 113 72 117.5 68.5C122 65 139 58.5 139 58.5C139 58.5 146.375 58.5 154.5 52C162.625 45.5 160.5 47 165.5 37.5C170.5 28 171 19 171 19V0L165.5 9.5L148 24L121.5 37.5L101 47L81 52L52.5 58.5C52.5 58.5 41 62.5 32.5 68.5C24 74.5 16.5 85 11.5 93.5C6.5 102 2.5 119 2.5 119L0 152.5V173.5V181.5L6.5 204.5L11.5 199C11.5 199 24.8333 179.333 32.5 173.5Z" fill="#D9D9D9"/>
</svg>
