<svg width="126" height="238" viewBox="0 0 126 238" fill="none" xmlns="http://www.w3.org/2000/svg">
<path d="M15.5 106C4.97186 77.5977 7.96428 60.4643 0 30C14.8663 39.1895 22.8995 43.8563 36.5 51C39.7377 49.4793 41.8263 47.8099 46.5 42L69 0C79.6448 15.467 85.2751 24.5983 94.5 42C100.374 60.5081 102.142 67.7282 105 80L112.5 148.5C115.769 181.488 119.068 197.704 126 225L75.5 237.5C70.9283 221.246 70.9896 211.576 61.5 195C50.4351 173.653 44.072 160.92 30.5 139C24.2717 128.002 20.4202 119.274 15.5 106Z" fill="#D9D9D9"/>
</svg>
