<svg width="87" height="180" viewBox="0 0 87 180" fill="none" xmlns="http://www.w3.org/2000/svg">
<path d="M83.9002 146.715C87.0846 134.556 87.9563 125.793 83.9002 98.2153C81.9753 82.1245 79.6004 71.423 71.9002 48.2153L41.4002 15.2153C33.5394 8.98511 29.202 6.40618 13.4002 0.128875C8.54829 -0.374316 5.89413 0.200788 1.40024 9.21525L1.37012 9.56484C-0.041481 25.944 -0.842186 35.2348 1.40024 51.7153C4.37708 70.2844 7.12598 80.4365 13.4002 98.2153C22.4858 127.901 28.6035 141.306 41.4002 159.215C53 169.629 61.7068 173.551 71.9002 179.629C78.3466 168.995 81.0605 159.166 83.9002 146.715Z" fill="#D9D9D9"/>
</svg>
